<svg width="23" height="41" viewBox="0 0 23 41" fill="none" xmlns="http://www.w3.org/2000/svg">
<path d="M19.8281 0.640625H3.17188C2.49253 0.641515 1.84127 0.911778 1.3609 1.39215C0.880528 1.87252 0.610265 2.52378 0.609375 3.20312V37.7969C0.610265 38.4762 0.880528 39.1275 1.3609 39.6079C1.84127 40.0882 2.49253 40.3585 3.17188 40.3594H19.8281C20.5075 40.3585 21.1587 40.0882 21.6391 39.6079C22.1195 39.1275 22.3897 38.4762 22.3906 37.7969V3.20312C22.3897 2.52378 22.1195 1.87252 21.6391 1.39215C21.1587 0.911778 20.5075 0.641515 19.8281 0.640625ZM14.4981 1.92188L14.1378 3.20312H8.79736L8.47705 1.92188H14.4981ZM21.1094 37.7969C21.1089 38.1365 20.9738 38.4622 20.7336 38.7024C20.4934 38.9426 20.1678 39.0777 19.8281 39.0781H3.17188C2.8322 39.0777 2.50657 38.9426 2.26639 38.7024C2.0262 38.4622 1.89107 38.1365 1.89062 37.7969V3.20312C1.89107 2.86345 2.0262 2.53782 2.26639 2.29764C2.50657 2.05745 2.8322 1.92232 3.17188 1.92188H7.15576L7.67547 3.9991C7.71011 4.13769 7.79008 4.26073 7.90268 4.34866C8.01527 4.43658 8.15402 4.48435 8.29688 4.48438H14.623C14.7627 4.48437 14.8984 4.43877 15.0097 4.35449C15.1211 4.27022 15.2018 4.15189 15.2396 4.01752L15.829 1.92188H19.8281C20.1678 1.92232 20.4934 2.05745 20.7336 2.29764C20.9738 2.53782 21.1089 2.86345 21.1094 3.20312V37.7969Z" fill="#6E00FA"/>
</svg>
